{"title":"Lee Daniels' The Butler (2013) NEW SOURCE CAM XViD UNiQUE","uid":8899009,"size":1530196307,"categoryP":"video","categoryS":"movies","magnet":"?xt=urn:btih:f89c2ee9c0351468c278fd75bc194a3e91fd2ae1&amp;dn=Lee+Daniels%27+The+Butler+%282013%29+NEW+SOURCE+CAM+XViD+UNiQUE&amp;tr=udp%3A%2F%2Ftracker.openbittorrent.com%3A80&amp;tr=udp%3A%2F%2Fopen.demonii.com%3A1337&amp;tr=udp%3A%2F%2Ftracker.coppersurfer.tk%3A6969&amp;tr=udp%3A%2F%2Fexodus.desync.com%3A6969","seeders":7,"leechers":0,"uploader":"xxxlavalxxx","files":3,"time":1378770795,"description":" &lt;a href=&quot;\nhttp://www.imdb.com/title/tt1327773/&quot; rel=&quot;nofollow&quot; target=&quot;_NEW&quot;&gt;\nhttp://www.imdb.com/title/tt1327773/&lt;/a&gt;\n\n\n\nAs Cecil Gaines serves eight presidents during his tenure as a butler at the White House, the civil rights movement, Vietnam, and other major events affect this man's life, family, and American society. \n\n\n\nDirector:\n Lee Daniels \n\nWriters:\n Danny Strong, Wil Haygood (article) \n\nStars:\n Forest Whitaker, Oprah Winfrey, John Cusack \n\nGenres:\n  Biography |  Drama \n\nCountry:\n USA \n\nLanguage:\n English \n\n\n\n\n Format                                   : AVI\n Format/Info                              : Audio Video Interleave\n File size                                : 1.41 GiB\n Duration                                 : 2h 11mn\n Overall bit rate                         : 1 534 Kbps\n Writing application                      : VirtualDubMod 1.5.10.2 (build 2540/release)\n Writing library                          : VirtualDubMod build 2540/release\n\n Video\n ID                                       : 0\n Format                                   : MPEG-4 Visual\n Format profile                           : Advanced Simple@L5\n Format settings, BVOP                    : 2\n Format settings, QPel                    : No\n Format settings, GMC                     : No warppoints\n Format settings, Matrix                  : Default (H.263)\n Muxing mode                              : Packed bitstream\n Codec ID                                 : XVID\n Codec ID/Hint                            : XviD\n Duration                                 : 2h 11mn\n Bit rate                                 : 1 395 Kbps\n Width                                    : 622 pixels\n Height                                   : 288 pixels\n Display aspect ratio                     : 2.2:1\n Frame rate                               : 29.970 fps\n Color space                              : YUV\n Chroma subsampling                       : 4:2:0\n Bit depth                                : 8 bits\n Scan type                                : Progressive\n Compression mode                         : Lossy\n Bits/(Pixel*Frame)                       : 0.260\n Stream size                              : 1.28 GiB (91%)\n Writing library                          : XviD 64\n\n Audio\n ID                                       : 1\n Format                                   : MPEG Audio\n Format version                           : Version 1\n Format profile                           : Layer 3\n Codec ID                                 : 55\n Codec ID/Hint                            : MP3\n Duration                                 : 2h 11mn\n Bit rate mode                            : Constant\n Bit rate                                 : 128 Kbps\n Channel(s)                               : 2 channels\n Sampling rate                            : 48.0 KHz\n Compression mode                         : Lossy\n Stream size                              : 121 MiB (8%)\n Alignment                                : Split accross interleaves\n Interleave, duration                     : 33 ms (1.00 video frame)\n Interleave, preload duration             : 500 ms\n\n\nSource Used      HP - Thanks\n\n\n &lt;a href=&quot;\nhttp://s11.postimg.org/7vlul4dxf/15xpkl4.png&quot; rel=&quot;nofollow&quot; target=&quot;_NEW&quot;&gt;\nhttp://s11.postimg.org/7vlul4dxf/15xpkl4.png&lt;/a&gt; &lt;a href=&quot;\nhttp://s24.postimg.org/h9t78wrkl/fxrms9.png&quot; rel=&quot;nofollow&quot; target=&quot;_NEW&quot;&gt;\nhttp://s24.postimg.org/h9t78wrkl/fxrms9.png&lt;/a&gt;","torrent":{"xt":"urn:btih:f89c2ee9c0351468c278fd75bc194a3e91fd2ae1","amp;dn":"Lee+Daniels%27+The+Butler+%282013%29+NEW+SOURCE+CAM+XViD+UNiQUE","amp;tr":["udp%3A%2F%2Ftracker.openbittorrent.com%3A80","udp%3A%2F%2Fopen.demonii.com%3A1337","udp%3A%2F%2Ftracker.coppersurfer.tk%3A6969","udp%3A%2F%2Fexodus.desync.com%3A6969"],"infoHash":"f89c2ee9c0351468c278fd75bc194a3e91fd2ae1","infoHashBuffer":{"type":"Buffer","data":[248,156,46,233,192,53,20,104,194,120,253,117,188,25,74,62,145,253,42,225]},"announce":[],"urlList":[]}}